<svg width="1179" height="821" viewBox="0 0 1179 821" fill="none" xmlns="http://www.w3.org/2000/svg">
<g clip-path="url(#clip0_1516_10653)">
<path d="M618.97 183.719L495.85 482.109L403.91 183.719H320.97L229.22 481.479L105.19 183.719H0L188.81 644.659H271.75L362.1 353.209L452.45 644.659H535.39L723.48 183.719H618.97Z" fill="white"/>
<path d="M1013.1 644.668H1125L938.219 183.668H842.499L653.699 644.668H763.599L795.269 561.088H981.869L1013.1 644.668ZM826.939 477.518L889.229 313.138L950.639 477.518H826.939Z" fill="white"/>
<path d="M1037.47 137.659L1077.64 97.1995C1079.05 95.8203 1080.35 94.3324 1081.53 92.7495C1082.42 91.564 1083.14 90.2533 1083.65 88.8595C1084.07 87.6306 1084.29 86.3395 1084.29 85.0395C1084.36 83.5779 1084.11 82.1186 1083.56 80.763C1083.01 79.4074 1082.17 78.188 1081.1 77.1895C1078.73 75.1668 1075.67 74.1293 1072.55 74.2895C1069.35 74.2883 1066.23 75.3037 1063.64 77.1895C1060.9 79.1295 1057.98 82.4061 1054.87 87.0195L1036.48 70.4695C1040.36 64.1122 1045.89 58.9275 1052.48 55.4695C1059.46 51.9693 1067.19 50.2255 1075 50.3895C1082.64 50.3895 1089.22 51.7228 1094.73 54.3895C1100.02 56.9071 1104.44 60.9506 1107.41 65.9995C1110.49 71.4224 1112.03 77.5841 1111.87 83.8195C1111.9 87.5069 1111.37 91.1775 1110.31 94.7095C1109.17 98.2829 1107.49 101.657 1105.31 104.709C1102.73 108.332 1099.8 111.683 1096.54 114.709L1071.22 138.759L1037.47 137.659ZM1037.47 152.789V137.659L1061 129.599H1114V152.789H1037.47Z" fill="white"/>
<path d="M1179.25 103.999C1179.26 82.6885 1172.73 61.8882 1160.54 44.4095C1148.34 26.9309 1131.08 13.6165 1111.08 6.26579C1091.07 -1.08491 1069.3 -2.11756 1048.69 3.30741C1028.08 8.73238 1009.63 20.3534 995.84 36.6C982.049 52.8466 973.578 72.9354 971.572 94.1516C969.565 115.368 974.121 136.688 984.622 155.232C995.124 173.776 1011.06 188.649 1030.29 197.841C1049.52 207.032 1071.1 210.1 1092.13 206.629L1125.84 290.069H1150.84L1114.58 200.309C1133.71 192.496 1150.07 179.162 1161.59 162.009C1173.11 144.856 1179.26 124.661 1179.25 103.999ZM995.529 103.999C995.529 88.2337 1000.2 72.8222 1008.96 59.7138C1017.72 46.6053 1030.17 36.3887 1044.74 30.3559C1059.3 24.3232 1075.33 22.7452 1090.79 25.8217C1106.26 28.8981 1120.46 36.4907 1131.61 47.6394C1142.75 58.788 1150.34 72.9919 1153.42 88.4548C1156.49 103.918 1154.91 119.945 1148.88 134.51C1142.84 149.075 1132.63 161.523 1119.52 170.281C1106.41 179.038 1091 183.711 1075.23 183.709C1064.76 183.709 1054.4 181.647 1044.73 177.642C1035.06 173.636 1026.27 167.764 1018.87 160.362C1011.47 152.96 1005.6 144.173 1001.59 134.502C997.589 124.831 995.528 114.467 995.529 103.999Z" fill="url(#paint0_linear_1516_10653)"/>
<path opacity="0.5" d="M779.62 821V803.06H802.37C807.917 803.06 812.77 801.977 816.93 799.81C821.09 797.557 824.297 794.307 826.55 790.06C828.803 785.813 829.93 780.787 829.93 774.98C829.93 769.173 828.76 764.19 826.42 760.03C824.167 755.87 820.96 752.663 816.8 750.41C812.727 748.157 807.917 747.03 802.37 747.03H778.97V729.22H802.63C809.563 729.22 815.933 730.347 821.74 732.6C827.633 734.767 832.747 737.93 837.08 742.09C841.5 746.163 844.88 751.017 847.22 756.65C849.647 762.197 850.86 768.35 850.86 775.11C850.86 781.783 849.647 787.937 847.22 793.57C844.88 799.203 841.543 804.057 837.21 808.13C832.877 812.203 827.763 815.367 821.87 817.62C816.063 819.873 809.737 821 802.89 821H779.62ZM765.84 821V729.22H786.25V821H765.84ZM907.658 822.56C900.724 822.56 894.311 821.347 888.418 818.92C882.611 816.493 877.498 813.113 873.078 808.78C868.658 804.447 865.234 799.42 862.808 793.7C860.381 787.893 859.168 781.653 859.168 774.98C859.168 768.22 860.381 761.98 862.808 756.26C865.234 750.54 868.614 745.557 872.948 741.31C877.281 736.977 882.351 733.64 888.158 731.3C894.051 728.873 900.464 727.66 907.398 727.66C914.244 727.66 920.571 728.873 926.378 731.3C932.271 733.64 937.384 736.977 941.718 741.31C946.138 745.557 949.561 750.583 951.988 756.39C954.414 762.11 955.628 768.35 955.628 775.11C955.628 781.783 954.414 788.023 951.988 793.83C949.561 799.55 946.181 804.577 941.848 808.91C937.514 813.157 932.401 816.493 926.508 818.92C920.701 821.347 914.418 822.56 907.658 822.56ZM907.398 803.97C912.858 803.97 917.624 802.757 921.698 800.33C925.858 797.903 929.064 794.523 931.318 790.19C933.571 785.77 934.698 780.7 934.698 774.98C934.698 770.647 934.048 766.747 932.748 763.28C931.448 759.727 929.584 756.693 927.158 754.18C924.731 751.58 921.828 749.63 918.448 748.33C915.154 746.943 911.471 746.25 907.398 746.25C901.938 746.25 897.128 747.463 892.968 749.89C888.894 752.23 885.731 755.567 883.478 759.9C881.224 764.147 880.098 769.173 880.098 774.98C880.098 779.313 880.748 783.257 882.048 786.81C883.348 790.363 885.168 793.44 887.508 796.04C889.934 798.553 892.838 800.503 896.218 801.89C899.598 803.277 903.324 803.97 907.398 803.97ZM1013.4 822.43C1006.56 822.43 1000.19 821.26 994.294 818.92C988.487 816.493 983.374 813.113 978.954 808.78C974.62 804.447 971.24 799.42 968.814 793.7C966.387 787.893 965.174 781.653 965.174 774.98C965.174 768.307 966.387 762.11 968.814 756.39C971.24 750.583 974.62 745.557 978.954 741.31C983.287 737.063 988.357 733.77 994.164 731.43C1000.06 729.003 1006.43 727.79 1013.27 727.79C1020.55 727.79 1027.01 728.96 1032.64 731.3C1038.36 733.64 1043.35 736.847 1047.59 740.92L1033.94 754.7C1031.52 752.1 1028.57 750.063 1025.1 748.59C1021.72 747.117 1017.78 746.38 1013.27 746.38C1009.29 746.38 1005.6 747.073 1002.22 748.46C998.93 749.76 996.07 751.667 993.644 754.18C991.304 756.693 989.44 759.727 988.054 763.28C986.754 766.833 986.104 770.733 986.104 774.98C986.104 779.313 986.754 783.257 988.054 786.81C989.44 790.363 991.304 793.397 993.644 795.91C996.07 798.423 998.93 800.373 1002.22 801.76C1005.6 803.147 1009.29 803.84 1013.27 803.84C1017.95 803.84 1022.03 803.103 1025.49 801.63C1028.96 800.157 1031.95 798.12 1034.46 795.52L1048.24 809.3C1043.82 813.373 1038.75 816.58 1033.03 818.92C1027.4 821.26 1020.86 822.43 1013.4 822.43ZM1085.52 822.43C1077.98 822.43 1071.48 821.217 1066.02 818.79C1060.65 816.277 1055.71 812.507 1051.2 807.48L1064.46 794.35C1067.41 797.73 1070.66 800.373 1074.21 802.28C1077.85 804.1 1082.05 805.01 1086.82 805.01C1091.15 805.01 1094.49 804.23 1096.83 802.67C1099.26 801.11 1100.47 798.943 1100.47 796.17C1100.47 793.657 1099.69 791.62 1098.13 790.06C1096.57 788.5 1094.49 787.157 1091.89 786.03C1089.38 784.903 1086.56 783.82 1083.44 782.78C1080.41 781.74 1077.37 780.57 1074.34 779.27C1071.31 777.883 1068.49 776.193 1065.89 774.2C1063.38 772.12 1061.34 769.563 1059.78 766.53C1058.22 763.41 1057.44 759.51 1057.44 754.83C1057.44 749.197 1058.78 744.343 1061.47 740.27C1064.24 736.197 1068.06 733.12 1072.91 731.04C1077.76 728.873 1083.35 727.79 1089.68 727.79C1096.09 727.79 1101.94 728.917 1107.23 731.17C1112.6 733.423 1117.02 736.5 1120.49 740.4L1107.23 753.53C1104.46 750.67 1101.64 748.547 1098.78 747.16C1096.01 745.773 1092.84 745.08 1089.29 745.08C1085.74 745.08 1082.92 745.773 1080.84 747.16C1078.76 748.46 1077.72 750.367 1077.72 752.88C1077.72 755.22 1078.5 757.127 1080.06 758.6C1081.62 759.987 1083.66 761.2 1086.17 762.24C1088.77 763.28 1091.59 764.32 1094.62 765.36C1097.74 766.4 1100.82 767.613 1103.85 769C1106.88 770.387 1109.66 772.163 1112.17 774.33C1114.77 776.41 1116.85 779.097 1118.41 782.39C1119.97 785.597 1120.75 789.583 1120.75 794.35C1120.75 803.103 1117.63 809.993 1111.39 815.02C1105.15 819.96 1096.53 822.43 1085.52 822.43Z" fill="white"/>
</g>
<defs>
<linearGradient id="paint0_linear_1516_10653" x1="896.139" y1="145.039" x2="1211.14" y2="145.039" gradientUnits="userSpaceOnUse">
<stop stop-color="#5A3AFF"/>
<stop offset="0.59" stop-color="#20BDFF"/>
<stop offset="1" stop-color="#30DBBC"/>
</linearGradient>
<clipPath id="clip0_1516_10653">
<rect width="1179" height="821" fill="white"/>
</clipPath>
</defs>
</svg>
