<svg width="2681" height="598" viewBox="0 0 2681 598" fill="none" xmlns="http://www.w3.org/2000/svg">
<g clip-path="url(#clip0_1516_10618)">
<path d="M1505.41 285.5L1442.74 92.2402H1479.57L1526 241H1513.63L1559.3 92.2402H1587.06L1632.7 241H1620.05L1666.78 92.2702H1703.62L1640.67 285.5H1612.9L1567 137.05H1579.1L1533.45 285.5H1505.41Z" fill="white"/>
<path d="M1692.62 285.5L1770.42 92.2402H1800.94L1878.46 285.5H1838.6L1778.67 126.88H1792.41L1731.66 285.5H1692.62ZM1733.86 249.5V218.15H1837.77V249.49L1733.86 249.5Z" fill="white"/>
<path d="M1953.51 288.25C1937.93 288.25 1924.6 285.584 1913.51 280.25C1902.42 274.917 1892.39 266.944 1883.41 256.33L1908.15 231.59C1913.43 238.752 1920.18 244.705 1927.94 249.05C1935.46 253.17 1944.62 255.23 1955.43 255.23C1965.15 255.23 1972.89 253.307 1978.66 249.46C1984.43 245.614 1987.31 240.3 1987.32 233.52C1987.32 227.647 1985.65 222.88 1982.32 219.22C1978.64 215.28 1974.23 212.102 1969.32 209.87C1963.52 207.159 1957.55 204.821 1951.45 202.87C1944.94 200.77 1938.43 198.344 1931.93 195.59C1925.56 192.922 1919.56 189.458 1914.06 185.28C1908.55 181.038 1904.08 175.592 1901 169.36C1897.7 162.847 1896.03 154.644 1896 144.75C1896 133.024 1898.84 123.024 1904.53 114.75C1910.38 106.348 1918.47 99.7629 1927.89 95.7504C1937.79 91.3504 1948.97 89.1504 1961.43 89.1504C1974.63 89.1504 1986.54 91.6237 1997.17 96.5704C2007.15 101.042 2016.06 107.607 2023.28 115.82L1998.54 140.56C1992.86 134.334 1987.04 129.75 1981.09 126.81C1974.78 123.802 1967.87 122.296 1960.88 122.41C1952.27 122.41 1945.49 124.077 1940.54 127.41C1935.59 130.744 1933.12 135.51 1933.12 141.71C1933.12 147.044 1934.77 151.35 1938.06 154.63C1941.85 158.254 1946.28 161.143 1951.12 163.15C1956.53 165.53 1962.48 167.82 1968.99 170.02C1975.5 172.22 1982 174.694 1988.51 177.44C1994.95 180.152 2000.96 183.765 2006.38 188.17C2011.94 192.761 2016.4 198.535 2019.44 205.07C2022.73 211.944 2024.37 220.42 2024.38 230.5C2024.38 248.46 2018.05 262.574 2005.38 272.84C1992.71 283.107 1975.42 288.244 1953.51 288.25Z" fill="white"/>
<path d="M2053.85 285.5V92.2402H2080.24L2158.58 217.6H2143.46L2221.54 92.2402H2247.93V285.5H2210.82V156.3L2217.96 158.5L2163.53 245.92H2138.24L2083.81 158.5L2091.23 156.3V285.5H2053.85Z" fill="white"/>
<path d="M1442.18 542L1520 348.75H1550.52L1628 542H1588.14L1528.21 383.38H1542L1481.22 542H1442.18ZM1483.42 506V474.65H1587.33V506H1483.42Z" fill="white"/>
<path d="M1649.19 542V409.22H1685.19V542H1649.19ZM1738.53 542V465.85C1738.53 457.977 1736.06 451.563 1731.11 446.61C1726.16 441.657 1719.75 439.183 1711.86 439.19C1707.08 439.106 1702.35 440.242 1698.12 442.49C1694.14 444.638 1690.85 447.878 1688.64 451.83C1686.29 456.114 1685.1 460.942 1685.2 465.83L1671.2 458.69C1671.2 448.237 1673.44 439.117 1677.93 431.33C1682.35 423.621 1688.82 417.291 1696.63 413.05C1704.94 408.564 1714.27 406.292 1723.71 406.45C1732.93 406.321 1742 408.852 1749.82 413.74C1757.37 418.447 1763.61 424.982 1767.97 432.74C1772.33 440.403 1774.6 449.075 1774.56 457.89V542H1738.53Z" fill="white"/>
<path d="M1859.21 544.75C1847.66 544.904 1836.32 541.758 1826.5 535.68C1816.8 529.645 1808.91 521.096 1803.68 510.94C1798.18 500.487 1795.43 488.757 1795.43 475.75C1795.43 462.563 1798.18 450.743 1803.68 440.29C1808.91 430.13 1816.79 421.579 1826.5 415.55C1836.32 409.469 1847.66 406.319 1859.21 406.47C1868.07 406.319 1876.84 408.302 1884.78 412.25C1892.09 415.926 1898.31 421.474 1902.78 428.33C1907.29 435.261 1909.81 443.296 1910.07 451.56V499.39C1909.85 507.705 1907.33 515.796 1902.78 522.76C1898.25 529.572 1892.06 535.108 1884.78 538.84C1876.87 542.873 1868.09 544.902 1859.21 544.75ZM1865.81 511.49C1875.89 511.49 1884.05 508.157 1890.28 501.49C1896.51 494.823 1899.63 486.157 1899.62 475.49C1899.74 469.048 1898.28 462.674 1895.36 456.93C1892.67 451.694 1888.58 447.313 1883.54 444.28C1878.16 441.17 1872.02 439.603 1865.81 439.75C1859.68 439.625 1853.64 441.193 1848.35 444.28C1843.31 447.313 1839.21 451.694 1836.53 456.93C1833.61 462.674 1832.15 469.048 1832.27 475.49C1832.13 482.02 1833.59 488.485 1836.53 494.32C1839.21 499.569 1843.3 503.962 1848.35 507C1853.64 510.077 1859.69 511.631 1865.81 511.49ZM1897.7 542V506.27L1903.47 473.83L1897.7 441.94V409.22H1933.44V542H1897.7Z" fill="white"/>
<path d="M1965.32 542V343.25H2001.32V542H1965.32Z" fill="white"/>
<path d="M2075 543.1L2019.47 409.22H2058.47L2095.3 511.49H2082.11L2120.32 409.22H2159.63L2100.53 543.1H2075ZM2038.16 597.53L2078.58 512L2100.58 543.06L2076.38 597.49L2038.16 597.53Z" fill="white"/>
<path d="M2162.43 521.38L2232.8 429.84H2276.24L2205.86 521.38H2162.43ZM2162.43 542V521.38L2191 510.66H2274.57V542H2162.43ZM2167.43 440.56V409.22H2276.29V429.84L2247.42 440.56H2167.43Z" fill="white"/>
<path d="M2360.91 544.75C2346.98 544.75 2334.61 541.773 2323.8 535.82C2313.19 530.056 2304.31 521.559 2298.09 511.21C2291.77 500.77 2288.61 488.86 2288.61 475.48C2288.61 462.28 2291.68 450.503 2297.82 440.15C2303.91 429.848 2312.59 421.319 2323 415.41C2333.79 409.227 2346.04 406.047 2358.47 406.2C2371.29 406.2 2382.61 409.086 2392.42 414.86C2402.11 420.513 2410.09 428.681 2415.51 438.5C2421.1 448.5 2423.9 459.816 2423.89 472.45C2423.89 474.885 2423.75 477.319 2423.48 479.74C2423.14 482.561 2422.64 485.359 2421.97 488.12L2310.36 488.4V461.46L2405.2 461.18L2390.63 472.45C2390.26 464.57 2388.84 457.973 2386.37 452.66C2384.11 447.596 2380.37 443.333 2375.65 440.43C2370.98 437.59 2365.26 436.17 2358.47 436.17C2351.91 436.013 2345.44 437.678 2339.77 440.98C2334.46 444.172 2330.21 448.857 2327.54 454.45C2324.7 460.223 2323.28 467.05 2323.28 474.93C2323.28 482.99 2324.79 489.99 2327.81 495.93C2330.68 501.72 2335.23 506.508 2340.87 509.67C2346.94 512.974 2353.76 514.633 2360.67 514.48C2366.97 514.571 2373.23 513.405 2379.08 511.05C2384.58 508.761 2389.47 505.232 2393.38 500.74L2414.55 521.9C2408.18 529.4 2400.1 535.264 2391 539C2381.45 542.897 2371.22 544.852 2360.91 544.75Z" fill="white"/>
<path d="M2446.13 542V409.22H2482.13V542H2446.13ZM2482.13 468.6L2468.13 459.26C2469.78 442.947 2474.55 430.07 2482.42 420.63C2490.29 411.19 2501.66 406.47 2516.51 406.47C2522.43 406.38 2528.32 407.457 2533.83 409.64C2539.23 411.951 2544.02 415.48 2547.83 419.95L2525.29 445.79C2523.28 443.577 2520.79 441.865 2518 440.79C2514.88 439.641 2511.57 439.082 2508.25 439.14C2500.55 439.14 2494.27 441.567 2489.41 446.42C2484.55 451.273 2482.13 458.667 2482.14 468.6H2482.13Z" fill="white"/>
<path d="M516.84 157.03L414.03 406.19L337.26 157.03H268.01L191.4 405.67L87.83 157.03H0L157.65 541.93H226.91L302.35 298.57L377.8 541.93H447.05L604.1 157.03H516.84Z" fill="white"/>
<path d="M845.928 541.93H939.388L783.428 157H703.478L545.828 541.93H637.598L664.048 472.14H819.848L845.928 541.93ZM690.488 402.36L742.488 265.11L793.768 402.36H690.488Z" fill="white"/>
<path d="M1034.91 257.29L1110 181.68C1112.63 179.096 1115.06 176.311 1117.26 173.35C1118.95 171.139 1120.29 168.689 1121.26 166.08C1122.05 163.783 1122.45 161.37 1122.45 158.94C1122.45 152.78 1120.45 147.89 1116.45 144.27C1112.45 140.65 1107.12 138.843 1100.45 138.85C1094.46 138.848 1088.63 140.745 1083.79 144.27C1078.68 147.89 1073.22 154.013 1067.4 162.64L1033.04 131.72C1040.31 119.839 1050.68 110.16 1063.04 103.72C1075.29 97.38 1089.26 94.21 1104.94 94.21C1119.22 94.21 1131.51 96.72 1141.82 101.74C1151.72 106.391 1160 113.891 1165.61 123.28C1171.16 132.613 1173.93 143.717 1173.94 156.59C1173.99 163.484 1173.01 170.346 1171.03 176.95C1168.94 183.607 1165.81 189.896 1161.78 195.59C1156.96 202.343 1151.47 208.588 1145.39 214.23L1098.07 259.17L1034.91 257.29ZM1034.91 285.57V257.29L1078.79 242.22H1177.93V285.57H1034.91Z" fill="white"/>
<path d="M1299.89 194.4C1299.89 87.04 1212.89 0 1105.49 0C998.09 0 911.09 87 911.09 194.4C911.09 301.8 998.09 388.81 1105.49 388.81C1116.07 388.799 1126.63 387.929 1137.07 386.21L1200.07 542.21H1246.73L1179 374.4C1214.75 359.795 1245.34 334.875 1266.87 302.818C1288.4 270.76 1299.89 233.017 1299.89 194.4ZM956.52 194.4C956.52 164.931 965.259 136.123 981.631 111.62C998.003 87.1171 1021.27 68.0194 1048.5 56.742C1075.73 45.4645 1105.69 42.5138 1134.59 48.263C1163.49 54.0122 1190.04 68.2031 1210.88 89.0411C1231.72 109.879 1245.91 136.428 1251.66 165.332C1257.41 194.235 1254.46 224.194 1243.18 251.42C1231.9 278.646 1212.8 301.917 1188.3 318.289C1163.8 334.661 1134.99 343.4 1105.52 343.4C1066 343.4 1028.1 327.702 1000.16 299.759C972.218 271.816 956.52 233.917 956.52 194.4Z" fill="url(#paint0_linear_1516_10618)"/>
<path opacity="0.5" d="M2335.62 286V268.06H2358.37C2363.92 268.06 2368.77 266.977 2372.93 264.81C2377.09 262.557 2380.3 259.307 2382.55 255.06C2384.8 250.813 2385.93 245.787 2385.93 239.98C2385.93 234.173 2384.76 229.19 2382.42 225.03C2380.17 220.87 2376.96 217.663 2372.8 215.41C2368.73 213.157 2363.92 212.03 2358.37 212.03H2334.97V194.22H2358.63C2365.56 194.22 2371.93 195.347 2377.74 197.6C2383.63 199.767 2388.75 202.93 2393.08 207.09C2397.5 211.163 2400.88 216.017 2403.22 221.65C2405.65 227.197 2406.86 233.35 2406.86 240.11C2406.86 246.783 2405.65 252.937 2403.22 258.57C2400.88 264.203 2397.54 269.057 2393.21 273.13C2388.88 277.203 2383.76 280.367 2377.87 282.62C2372.06 284.873 2365.74 286 2358.89 286H2335.62ZM2321.84 286V194.22H2342.25V286H2321.84ZM2463.66 287.56C2456.72 287.56 2450.31 286.347 2444.42 283.92C2438.61 281.493 2433.5 278.113 2429.08 273.78C2424.66 269.447 2421.23 264.42 2418.81 258.7C2416.38 252.893 2415.17 246.653 2415.17 239.98C2415.17 233.22 2416.38 226.98 2418.81 221.26C2421.23 215.54 2424.61 210.557 2428.95 206.31C2433.28 201.977 2438.35 198.64 2444.16 196.3C2450.05 193.873 2456.46 192.66 2463.4 192.66C2470.24 192.66 2476.57 193.873 2482.38 196.3C2488.27 198.64 2493.38 201.977 2497.72 206.31C2502.14 210.557 2505.56 215.583 2507.99 221.39C2510.41 227.11 2511.63 233.35 2511.63 240.11C2511.63 246.783 2510.41 253.023 2507.99 258.83C2505.56 264.55 2502.18 269.577 2497.85 273.91C2493.51 278.157 2488.4 281.493 2482.51 283.92C2476.7 286.347 2470.42 287.56 2463.66 287.56ZM2463.4 268.97C2468.86 268.97 2473.62 267.757 2477.7 265.33C2481.86 262.903 2485.06 259.523 2487.32 255.19C2489.57 250.77 2490.7 245.7 2490.7 239.98C2490.7 235.647 2490.05 231.747 2488.75 228.28C2487.45 224.727 2485.58 221.693 2483.16 219.18C2480.73 216.58 2477.83 214.63 2474.45 213.33C2471.15 211.943 2467.47 211.25 2463.4 211.25C2457.94 211.25 2453.13 212.463 2448.97 214.89C2444.89 217.23 2441.73 220.567 2439.48 224.9C2437.22 229.147 2436.1 234.173 2436.1 239.98C2436.1 244.313 2436.75 248.257 2438.05 251.81C2439.35 255.363 2441.17 258.44 2443.51 261.04C2445.93 263.553 2448.84 265.503 2452.22 266.89C2455.6 268.277 2459.32 268.97 2463.4 268.97ZM2569.4 287.43C2562.56 287.43 2556.19 286.26 2550.29 283.92C2544.49 281.493 2539.37 278.113 2534.95 273.78C2530.62 269.447 2527.24 264.42 2524.81 258.7C2522.39 252.893 2521.17 246.653 2521.17 239.98C2521.17 233.307 2522.39 227.11 2524.81 221.39C2527.24 215.583 2530.62 210.557 2534.95 206.31C2539.29 202.063 2544.36 198.77 2550.16 196.43C2556.06 194.003 2562.43 192.79 2569.27 192.79C2576.55 192.79 2583.01 193.96 2588.64 196.3C2594.36 198.64 2599.35 201.847 2603.59 205.92L2589.94 219.7C2587.52 217.1 2584.57 215.063 2581.1 213.59C2577.72 212.117 2573.78 211.38 2569.27 211.38C2565.29 211.38 2561.6 212.073 2558.22 213.46C2554.93 214.76 2552.07 216.667 2549.64 219.18C2547.3 221.693 2545.44 224.727 2544.05 228.28C2542.75 231.833 2542.1 235.733 2542.1 239.98C2542.1 244.313 2542.75 248.257 2544.05 251.81C2545.44 255.363 2547.3 258.397 2549.64 260.91C2552.07 263.423 2554.93 265.373 2558.22 266.76C2561.6 268.147 2565.29 268.84 2569.27 268.84C2573.95 268.84 2578.03 268.103 2581.49 266.63C2584.96 265.157 2587.95 263.12 2590.46 260.52L2604.24 274.3C2599.82 278.373 2594.75 281.58 2589.03 283.92C2583.4 286.26 2576.86 287.43 2569.4 287.43ZM2641.52 287.43C2633.98 287.43 2627.48 286.217 2622.02 283.79C2616.65 281.277 2611.71 277.507 2607.2 272.48L2620.46 259.35C2623.41 262.73 2626.66 265.373 2630.21 267.28C2633.85 269.1 2638.05 270.01 2642.82 270.01C2647.15 270.01 2650.49 269.23 2652.83 267.67C2655.26 266.11 2656.47 263.943 2656.47 261.17C2656.47 258.657 2655.69 256.62 2654.13 255.06C2652.57 253.5 2650.49 252.157 2647.89 251.03C2645.38 249.903 2642.56 248.82 2639.44 247.78C2636.41 246.74 2633.37 245.57 2630.34 244.27C2627.31 242.883 2624.49 241.193 2621.89 239.2C2619.38 237.12 2617.34 234.563 2615.78 231.53C2614.22 228.41 2613.44 224.51 2613.44 219.83C2613.44 214.197 2614.78 209.343 2617.47 205.27C2620.24 201.197 2624.06 198.12 2628.91 196.04C2633.76 193.873 2639.35 192.79 2645.68 192.79C2652.09 192.79 2657.94 193.917 2663.23 196.17C2668.6 198.423 2673.02 201.5 2676.49 205.4L2663.23 218.53C2660.46 215.67 2657.64 213.547 2654.78 212.16C2652.01 210.773 2648.84 210.08 2645.29 210.08C2641.74 210.08 2638.92 210.773 2636.84 212.16C2634.76 213.46 2633.72 215.367 2633.72 217.88C2633.72 220.22 2634.5 222.127 2636.06 223.6C2637.62 224.987 2639.66 226.2 2642.17 227.24C2644.77 228.28 2647.59 229.32 2650.62 230.36C2653.74 231.4 2656.82 232.613 2659.85 234C2662.88 235.387 2665.66 237.163 2668.17 239.33C2670.77 241.41 2672.85 244.097 2674.41 247.39C2675.97 250.597 2676.75 254.583 2676.75 259.35C2676.75 268.103 2673.63 274.993 2667.39 280.02C2661.15 284.96 2652.53 287.43 2641.52 287.43Z" fill="white"/>
</g>
<defs>
<linearGradient id="paint0_linear_1516_10618" x1="770.76" y1="271.09" x2="1359.5" y2="271.09" gradientUnits="userSpaceOnUse">
<stop stop-color="#5A3AFF"/>
<stop offset="0.59" stop-color="#20BDFF"/>
<stop offset="1" stop-color="#30DBBC"/>
</linearGradient>
<clipPath id="clip0_1516_10618">
<rect width="2681" height="598" fill="white"/>
</clipPath>
</defs>
</svg>
