<svg width="2681" height="597" viewBox="0 0 2681 597" fill="none" xmlns="http://www.w3.org/2000/svg">
<g clip-path="url(#clip0_1516_10735)">
<path d="M1505.41 285.039L1442.74 91.7793H1479.57L1526 240.539H1513.63L1559.3 91.7793H1587.06L1632.7 240.539H1620.05L1666.78 91.8093H1703.62L1640.67 285.039H1612.9L1567 136.589H1579.1L1533.45 285.039H1505.41Z" fill="#231F20"/>
<path d="M1692.62 285.039L1770.42 91.7793H1800.94L1878.46 285.039H1838.6L1778.67 126.419H1792.41L1731.66 285.039H1692.62ZM1733.86 249.039V217.689H1837.77V249.029L1733.86 249.039Z" fill="#231F20"/>
<path d="M1953.51 287.789C1937.93 287.789 1924.6 285.123 1913.51 279.789C1902.42 274.456 1892.39 266.483 1883.41 255.869L1908.15 231.129C1913.43 238.291 1920.18 244.244 1927.94 248.589C1935.46 252.709 1944.62 254.769 1955.43 254.769C1965.15 254.769 1972.89 252.846 1978.66 248.999C1984.43 245.153 1987.31 239.839 1987.32 233.059C1987.32 227.186 1985.65 222.419 1982.32 218.759C1978.64 214.819 1974.23 211.641 1969.32 209.409C1963.52 206.698 1957.55 204.36 1951.45 202.409C1944.94 200.309 1938.43 197.883 1931.93 195.129C1925.56 192.461 1919.56 188.997 1914.06 184.819C1908.55 180.577 1904.08 175.132 1901 168.899C1897.7 162.386 1896.03 154.183 1896 144.289C1896 132.563 1898.84 122.563 1904.53 114.289C1910.38 105.887 1918.47 99.302 1927.89 95.2895C1937.79 90.8895 1948.97 88.6895 1961.43 88.6895C1974.63 88.6895 1986.54 91.1628 1997.17 96.1095C2007.15 100.582 2016.06 107.146 2023.28 115.359L1998.54 140.099C1992.86 133.873 1987.04 129.289 1981.09 126.349C1974.78 123.341 1967.87 121.835 1960.88 121.949C1952.27 121.949 1945.49 123.616 1940.54 126.949C1935.59 130.283 1933.12 135.049 1933.12 141.249C1933.12 146.583 1934.77 150.889 1938.06 154.169C1941.85 157.793 1946.28 160.682 1951.12 162.689C1956.53 165.069 1962.48 167.359 1968.99 169.559C1975.5 171.759 1982 174.233 1988.51 176.979C1994.95 179.691 2000.96 183.304 2006.38 187.709C2011.94 192.3 2016.4 198.074 2019.44 204.609C2022.73 211.483 2024.37 219.959 2024.38 230.039C2024.38 247.999 2018.05 262.113 2005.38 272.379C1992.71 282.646 1975.42 287.783 1953.51 287.789Z" fill="#231F20"/>
<path d="M2053.85 285.039V91.7793H2080.24L2158.58 217.139H2143.46L2221.54 91.7793H2247.93V285.039H2210.82V155.839L2217.96 158.039L2163.53 245.459H2138.24L2083.81 158.039L2091.23 155.839V285.039H2053.85Z" fill="#231F20"/>
<path d="M1442.18 541.539L1520 348.289H1550.52L1628 541.539H1588.14L1528.21 382.919H1542L1481.22 541.539H1442.18ZM1483.42 505.539V474.189H1587.33V505.539H1483.42Z" fill="#231F20"/>
<path d="M1649.19 541.538V408.758H1685.19V541.538H1649.19ZM1738.53 541.538V465.388C1738.53 457.515 1736.06 451.102 1731.11 446.148C1726.16 441.195 1719.75 438.722 1711.86 438.728C1707.08 438.644 1702.35 439.78 1698.12 442.028C1694.14 444.176 1690.85 447.416 1688.64 451.368C1686.29 455.652 1685.1 460.48 1685.2 465.368L1671.2 458.228C1671.2 447.775 1673.44 438.655 1677.93 430.868C1682.35 423.159 1688.82 416.83 1696.63 412.588C1704.94 408.102 1714.27 405.83 1723.71 405.988C1732.93 405.859 1742 408.39 1749.82 413.278C1757.37 417.985 1763.61 424.52 1767.97 432.278C1772.33 439.941 1774.6 448.613 1774.56 457.428V541.538H1738.53Z" fill="#231F20"/>
<path d="M1859.21 544.29C1847.66 544.444 1836.32 541.298 1826.5 535.22C1816.8 529.185 1808.91 520.636 1803.68 510.48C1798.18 500.027 1795.43 488.297 1795.43 475.29C1795.43 462.103 1798.18 450.283 1803.68 439.83C1808.91 429.67 1816.79 421.119 1826.5 415.09C1836.32 409.009 1847.66 405.859 1859.21 406.01C1868.07 405.859 1876.84 407.842 1884.78 411.79C1892.09 415.466 1898.31 421.014 1902.78 427.87C1907.29 434.801 1909.81 442.836 1910.07 451.1V498.93C1909.85 507.245 1907.33 515.336 1902.78 522.3C1898.25 529.112 1892.06 534.648 1884.78 538.38C1876.87 542.413 1868.09 544.442 1859.21 544.29ZM1865.81 511.03C1875.89 511.03 1884.05 507.697 1890.28 501.03C1896.51 494.363 1899.63 485.697 1899.62 475.03C1899.74 468.588 1898.28 462.214 1895.36 456.47C1892.67 451.235 1888.58 446.853 1883.54 443.82C1878.16 440.71 1872.02 439.143 1865.81 439.29C1859.68 439.165 1853.64 440.733 1848.35 443.82C1843.31 446.853 1839.21 451.235 1836.53 456.47C1833.61 462.214 1832.15 468.588 1832.27 475.03C1832.13 481.56 1833.59 488.025 1836.53 493.86C1839.21 499.109 1843.3 503.502 1848.35 506.54C1853.64 509.617 1859.69 511.171 1865.81 511.03ZM1897.7 541.54V505.81L1903.47 473.37L1897.7 441.48V408.76H1933.44V541.54H1897.7Z" fill="#231F20"/>
<path d="M1965.32 541.539V342.789H2001.32V541.539H1965.32Z" fill="#231F20"/>
<path d="M2075 542.64L2019.47 408.76H2058.47L2095.3 511.03H2082.11L2120.32 408.76H2159.63L2100.53 542.64H2075ZM2038.16 597.07L2078.58 511.54L2100.58 542.6L2076.38 597.03L2038.16 597.07Z" fill="#231F20"/>
<path d="M2162.43 520.92L2232.8 429.38H2276.24L2205.86 520.92H2162.43ZM2162.43 541.54V520.92L2191 510.2H2274.57V541.54H2162.43ZM2167.43 440.1V408.76H2276.29V429.38L2247.42 440.1H2167.43Z" fill="#231F20"/>
<path d="M2360.91 544.29C2346.98 544.29 2334.61 541.313 2323.8 535.36C2313.19 529.596 2304.31 521.099 2298.09 510.75C2291.77 500.31 2288.61 488.4 2288.61 475.02C2288.61 461.82 2291.68 450.043 2297.82 439.69C2303.91 429.388 2312.59 420.859 2323 414.95C2333.79 408.767 2346.04 405.587 2358.47 405.74C2371.29 405.74 2382.61 408.626 2392.42 414.4C2402.11 420.053 2410.09 428.222 2415.51 438.04C2421.1 448.04 2423.9 459.356 2423.89 471.99C2423.89 474.425 2423.75 476.859 2423.48 479.28C2423.14 482.101 2422.64 484.899 2421.97 487.66L2310.36 487.94V461L2405.2 460.72L2390.63 471.99C2390.26 464.11 2388.84 457.513 2386.37 452.2C2384.11 447.136 2380.37 442.873 2375.65 439.97C2370.98 437.13 2365.26 435.71 2358.47 435.71C2351.91 435.553 2345.44 437.218 2339.77 440.52C2334.46 443.712 2330.21 448.397 2327.54 453.99C2324.7 459.763 2323.28 466.59 2323.28 474.47C2323.28 482.53 2324.79 489.53 2327.81 495.47C2330.68 501.26 2335.23 506.048 2340.87 509.21C2346.94 512.514 2353.76 514.173 2360.67 514.02C2366.97 514.111 2373.23 512.945 2379.08 510.59C2384.58 508.301 2389.47 504.773 2393.38 500.28L2414.55 521.44C2408.18 528.94 2400.1 534.804 2391 538.54C2381.45 542.437 2371.22 544.392 2360.91 544.29Z" fill="#231F20"/>
<path d="M2446.13 541.539V408.759H2482.13V541.539H2446.13ZM2482.13 468.139L2468.13 458.799C2469.78 442.486 2474.55 429.609 2482.42 420.169C2490.29 410.729 2501.66 406.009 2516.51 406.009C2522.43 405.919 2528.32 406.996 2533.83 409.179C2539.23 411.491 2544.02 415.019 2547.83 419.489L2525.29 445.329C2523.28 443.116 2520.79 441.404 2518 440.329C2514.88 439.18 2511.57 438.621 2508.25 438.679C2500.55 438.679 2494.27 441.106 2489.41 445.959C2484.55 450.812 2482.13 458.206 2482.14 468.139H2482.13Z" fill="#231F20"/>
<path d="M516.84 156.568L414.03 405.728L337.26 156.568H268.01L191.4 405.208L87.83 156.568H0L157.65 541.468H226.91L302.35 298.108L377.8 541.468H447.05L604.1 156.568H516.84Z" fill="#231F20"/>
<path d="M845.928 541.469H939.388L783.428 156.539H703.478L545.828 541.469H637.598L664.048 471.679H819.848L845.928 541.469ZM690.488 401.899L742.488 264.649L793.768 401.899H690.488Z" fill="#231F20"/>
<path fill-rule="evenodd" clip-rule="evenodd" d="M1105.49 -0.460938C1212.89 -0.460938 1299.89 86.5791 1299.89 193.939C1299.89 232.556 1288.4 270.299 1266.87 302.357C1245.34 334.414 1214.75 359.334 1179 373.939L1246.73 541.749H1200.07L1137.07 385.749C1126.63 387.468 1116.07 388.338 1105.49 388.349C998.09 388.349 911.09 301.339 911.09 193.939C911.09 86.5391 998.09 -0.460938 1105.49 -0.460938ZM981.631 111.159C965.259 135.662 956.52 164.47 956.52 193.939C956.52 233.456 972.218 271.355 1000.16 299.298C1028.1 327.241 1066 342.939 1105.52 342.939C1134.99 342.939 1163.8 334.2 1188.3 317.828C1212.8 301.456 1231.9 278.185 1243.18 250.959C1254.46 223.733 1257.41 193.774 1251.66 164.871C1245.91 135.967 1231.72 109.418 1210.88 88.5802C1190.04 67.7421 1163.49 53.5513 1134.59 47.8021C1105.69 42.0529 1075.73 45.0036 1048.5 56.281C1021.27 67.5585 998.003 86.6562 981.631 111.159ZM1110 181.22L1034.91 256.83V285.11H1177.93V241.76H1115.92L1145.39 213.77C1151.47 208.128 1156.96 201.883 1161.78 195.13C1165.81 189.436 1168.94 183.147 1171.03 176.49C1173.01 169.886 1173.99 163.024 1173.94 156.13C1173.93 143.257 1171.16 132.153 1165.61 122.82C1160 113.431 1151.72 105.931 1141.82 101.28C1131.51 96.26 1119.22 93.75 1104.94 93.75C1089.26 93.75 1075.29 96.92 1063.04 103.26C1050.68 109.7 1040.31 119.379 1033.04 131.26L1067.4 162.18C1073.22 153.553 1078.68 147.43 1083.79 143.81C1088.63 140.285 1094.46 138.388 1100.45 138.39C1107.12 138.383 1112.45 140.19 1116.45 143.81C1120.45 147.43 1122.45 152.32 1122.45 158.48C1122.45 160.91 1122.05 163.323 1121.26 165.62C1120.29 168.229 1118.95 170.679 1117.26 172.89C1115.06 175.851 1112.63 178.636 1110 181.22Z" fill="url(#paint0_linear_1516_10735)"/>
<path d="M2335.62 285V267.06H2358.37C2363.92 267.06 2368.77 265.977 2372.93 263.81C2377.09 261.557 2380.3 258.307 2382.55 254.06C2384.8 249.813 2385.93 244.787 2385.93 238.98C2385.93 233.173 2384.76 228.19 2382.42 224.03C2380.17 219.87 2376.96 216.663 2372.8 214.41C2368.73 212.157 2363.92 211.03 2358.37 211.03H2334.97V193.22H2358.63C2365.56 193.22 2371.93 194.347 2377.74 196.6C2383.63 198.767 2388.75 201.93 2393.08 206.09C2397.5 210.163 2400.88 215.017 2403.22 220.65C2405.65 226.197 2406.86 232.35 2406.86 239.11C2406.86 245.783 2405.65 251.937 2403.22 257.57C2400.88 263.203 2397.54 268.057 2393.21 272.13C2388.88 276.203 2383.76 279.367 2377.87 281.62C2372.06 283.873 2365.74 285 2358.89 285H2335.62ZM2321.84 285V193.22H2342.25V285H2321.84ZM2463.66 286.56C2456.72 286.56 2450.31 285.347 2444.42 282.92C2438.61 280.493 2433.5 277.113 2429.08 272.78C2424.66 268.447 2421.23 263.42 2418.81 257.7C2416.38 251.893 2415.17 245.653 2415.17 238.98C2415.17 232.22 2416.38 225.98 2418.81 220.26C2421.23 214.54 2424.61 209.557 2428.95 205.31C2433.28 200.977 2438.35 197.64 2444.16 195.3C2450.05 192.873 2456.46 191.66 2463.4 191.66C2470.24 191.66 2476.57 192.873 2482.38 195.3C2488.27 197.64 2493.38 200.977 2497.72 205.31C2502.14 209.557 2505.56 214.583 2507.99 220.39C2510.41 226.11 2511.63 232.35 2511.63 239.11C2511.63 245.783 2510.41 252.023 2507.99 257.83C2505.56 263.55 2502.18 268.577 2497.85 272.91C2493.51 277.157 2488.4 280.493 2482.51 282.92C2476.7 285.347 2470.42 286.56 2463.66 286.56ZM2463.4 267.97C2468.86 267.97 2473.62 266.757 2477.7 264.33C2481.86 261.903 2485.06 258.523 2487.32 254.19C2489.57 249.77 2490.7 244.7 2490.7 238.98C2490.7 234.647 2490.05 230.747 2488.75 227.28C2487.45 223.727 2485.58 220.693 2483.16 218.18C2480.73 215.58 2477.83 213.63 2474.45 212.33C2471.15 210.943 2467.47 210.25 2463.4 210.25C2457.94 210.25 2453.13 211.463 2448.97 213.89C2444.89 216.23 2441.73 219.567 2439.48 223.9C2437.22 228.147 2436.1 233.173 2436.1 238.98C2436.1 243.313 2436.75 247.257 2438.05 250.81C2439.35 254.363 2441.17 257.44 2443.51 260.04C2445.93 262.553 2448.84 264.503 2452.22 265.89C2455.6 267.277 2459.32 267.97 2463.4 267.97ZM2569.4 286.43C2562.56 286.43 2556.19 285.26 2550.29 282.92C2544.49 280.493 2539.37 277.113 2534.95 272.78C2530.62 268.447 2527.24 263.42 2524.81 257.7C2522.39 251.893 2521.17 245.653 2521.17 238.98C2521.17 232.307 2522.39 226.11 2524.81 220.39C2527.24 214.583 2530.62 209.557 2534.95 205.31C2539.29 201.063 2544.36 197.77 2550.16 195.43C2556.06 193.003 2562.43 191.79 2569.27 191.79C2576.55 191.79 2583.01 192.96 2588.64 195.3C2594.36 197.64 2599.35 200.847 2603.59 204.92L2589.94 218.7C2587.52 216.1 2584.57 214.063 2581.1 212.59C2577.72 211.117 2573.78 210.38 2569.27 210.38C2565.29 210.38 2561.6 211.073 2558.22 212.46C2554.93 213.76 2552.07 215.667 2549.64 218.18C2547.3 220.693 2545.44 223.727 2544.05 227.28C2542.75 230.833 2542.1 234.733 2542.1 238.98C2542.1 243.313 2542.75 247.257 2544.05 250.81C2545.44 254.363 2547.3 257.397 2549.64 259.91C2552.07 262.423 2554.93 264.373 2558.22 265.76C2561.6 267.147 2565.29 267.84 2569.27 267.84C2573.95 267.84 2578.03 267.103 2581.49 265.63C2584.96 264.157 2587.95 262.12 2590.46 259.52L2604.24 273.3C2599.82 277.373 2594.75 280.58 2589.03 282.92C2583.4 285.26 2576.86 286.43 2569.4 286.43ZM2641.52 286.43C2633.98 286.43 2627.48 285.217 2622.02 282.79C2616.65 280.277 2611.71 276.507 2607.2 271.48L2620.46 258.35C2623.41 261.73 2626.66 264.373 2630.21 266.28C2633.85 268.1 2638.05 269.01 2642.82 269.01C2647.15 269.01 2650.49 268.23 2652.83 266.67C2655.26 265.11 2656.47 262.943 2656.47 260.17C2656.47 257.657 2655.69 255.62 2654.13 254.06C2652.57 252.5 2650.49 251.157 2647.89 250.03C2645.38 248.903 2642.56 247.82 2639.44 246.78C2636.41 245.74 2633.37 244.57 2630.34 243.27C2627.31 241.883 2624.49 240.193 2621.89 238.2C2619.38 236.12 2617.34 233.563 2615.78 230.53C2614.22 227.41 2613.44 223.51 2613.44 218.83C2613.44 213.197 2614.78 208.343 2617.47 204.27C2620.24 200.197 2624.06 197.12 2628.91 195.04C2633.76 192.873 2639.35 191.79 2645.68 191.79C2652.09 191.79 2657.94 192.917 2663.23 195.17C2668.6 197.423 2673.02 200.5 2676.49 204.4L2663.23 217.53C2660.46 214.67 2657.64 212.547 2654.78 211.16C2652.01 209.773 2648.84 209.08 2645.29 209.08C2641.74 209.08 2638.92 209.773 2636.84 211.16C2634.76 212.46 2633.72 214.367 2633.72 216.88C2633.72 219.22 2634.5 221.127 2636.06 222.6C2637.62 223.987 2639.66 225.2 2642.17 226.24C2644.77 227.28 2647.59 228.32 2650.62 229.36C2653.74 230.4 2656.82 231.613 2659.85 233C2662.88 234.387 2665.66 236.163 2668.17 238.33C2670.77 240.41 2672.85 243.097 2674.41 246.39C2675.97 249.597 2676.75 253.583 2676.75 258.35C2676.75 267.103 2673.63 273.993 2667.39 279.02C2661.15 283.96 2652.53 286.43 2641.52 286.43Z" fill="#BCC1C9"/>
</g>
<defs>
<linearGradient id="paint0_linear_1516_10735" x1="770.76" y1="270.629" x2="1359.5" y2="270.629" gradientUnits="userSpaceOnUse">
<stop stop-color="#5A3AFF"/>
<stop offset="0.59" stop-color="#20BDFF"/>
<stop offset="1" stop-color="#30DBBC"/>
</linearGradient>
<clipPath id="clip0_1516_10735">
<rect width="2681" height="597" fill="white"/>
</clipPath>
</defs>
</svg>
