<?xml version="1.0" encoding="utf-8"?>
<!-- Generator: Adobe Illustrator 25.2.3, SVG Export Plug-In . SVG Version: 6.00 Build 0)  -->
<svg version="1.1" xmlns="http://www.w3.org/2000/svg" xmlns:xlink="http://www.w3.org/1999/xlink" x="0px" y="0px"
	 viewBox="0 0 1495.49 697.53" style="enable-background:new 0 0 1495.49 697.53;" xml:space="preserve">
<style type="text/css">
	.st0{fill:#0C0D15;}
	.st1{fill:#FFFFFF;}
	.st2{fill:url(#SVGID_1_);}
	.st3{fill:url(#SVGID_2_);}
	.st4{fill:url(#SVGID_3_);}
	.st5{fill:url(#SVGID_4_);}
	.st6{fill:url(#SVGID_5_);}
	.st7{fill:url(#SVGID_6_);}
</style>
<g id="WASM_Logo_original">
	<rect id="BG_1_" y="0" class="st0" width="1495.49" height="697.53"/>
	<g id="Logo_1_">
		<polygon class="st1" points="605.18,228.85 492.33,502.35 408.06,228.85 332.04,228.85 247.94,501.78 134.26,228.85 37.84,228.85 
			210.9,651.35 286.92,651.35 369.74,384.21 452.56,651.35 528.58,651.35 700.98,228.85 		"/>
		<path class="st1" d="M966.44,651.35h102.6l-171.2-422.5h-87.76l-173.05,422.5h100.74l29.03-76.6h171.03L966.44,651.35z
			 M795.81,498.15l57.09-150.67l56.3,150.67H795.81z"/>
		<g>
			<path class="st1" d="M1173.88,338.89l82.42-83c3.29-3.29,5.95-6.33,7.98-9.14c2.03-2.8,3.49-5.46,4.35-7.98
				c0.87-2.51,1.31-5.12,1.31-7.84c0-6.77-2.17-12.14-6.53-16.1c-4.35-3.96-10.21-5.95-17.56-5.95c-6.58,0-12.67,1.99-18.28,5.95
				c-5.61,3.97-11.61,10.69-17.99,20.17l-37.73-33.95c8.51-13.54,19.49-23.8,32.94-30.76c13.44-6.96,28.78-10.45,45.99-10.45
				c15.67,0,29.16,2.76,40.48,8.27c11.32,5.51,20.03,13.4,26.12,23.65c6.09,10.26,9.14,22.44,9.14,36.56
				c0,7.93-1.06,15.38-3.19,22.35c-2.13,6.96-5.51,13.78-10.16,20.46c-4.64,6.67-10.64,13.5-17.99,20.46l-51.95,49.33
				L1173.88,338.89z M1173.88,369.94v-31.05l48.17-16.54h108.82v47.59H1173.88z"/>
		</g>
		<g>
			<linearGradient id="SVGID_1_" gradientUnits="userSpaceOnUse" x1="883.921" y1="354.0416" x2="1530.1978" y2="354.0416">
				<stop  offset="0" style="stop-color:#5A3AFF"/>
				<stop  offset="0.5899" style="stop-color:#20BDFF"/>
				<stop  offset="1" style="stop-color:#30DBBC"/>
			</linearGradient>
			<path class="st2" d="M1464.76,269.87c0-117.86-95.54-213.4-213.4-213.4c-117.86,0-213.4,95.54-213.4,213.4
				c0,117.86,95.54,213.4,213.4,213.4c11.81,0,23.38-1,34.67-2.85l69.17,171.2h51.21l-74.41-184.17
				C1409.87,435.64,1464.76,359.18,1464.76,269.87z M1087.84,269.87c0-90.31,73.21-163.52,163.53-163.52s163.53,73.21,163.53,163.52
				c0,90.31-73.21,163.52-163.53,163.52S1087.84,360.18,1087.84,269.87z"/>
		</g>
	</g>
</g>
<g id="WASM_logo_for_a_small_menu">
</g>
<g id="Full_logo">
</g>
<g id="For_export_without_margins">
</g>
</svg>
