<svg xmlns="http://www.w3.org/2000/svg" xmlns:xlink="http://www.w3.org/1999/xlink" viewBox="0 0 2548 597.54"><defs><style>.cls-1{fill:#fff;}.cls-2{fill:url(#Безымянный_градиент_3);}</style><linearGradient id="Безымянный_градиент_3" x1="770.76" y1="271.09" x2="1359.5" y2="271.09" gradientUnits="userSpaceOnUse"><stop offset="0" stop-color="#5a3aff"/><stop offset="0.59" stop-color="#20bdff"/><stop offset="1" stop-color="#30dbbc"/></linearGradient></defs><g id="For_export_without_margins" data-name="For export without margins"><g id="Logo"><path class="cls-1" d="M1505.41,285.5,1442.74,92.24h36.83L1526,241h-12.37L1559.3,92.24h27.76L1632.7,241h-12.65l46.73-148.73h36.84L1640.67,285.5H1612.9L1567,137.05h12.1L1533.45,285.5Z"/><path class="cls-1" d="M1692.62,285.5l77.8-193.26h30.52l77.52,193.26H1838.6l-59.93-158.62h13.74L1731.66,285.5Zm41.24-36V218.15h103.91v31.34Z"/><path class="cls-1" d="M1953.51,288.25q-23.37,0-40-8t-30.1-23.92l24.74-24.74a62.53,62.53,0,0,0,19.79,17.46q11.28,6.18,27.49,6.18,14.58,0,23.23-5.77t8.66-15.94q0-8.81-5-14.3a41,41,0,0,0-13-9.35,150.33,150.33,0,0,0-17.87-7q-9.77-3.15-19.52-7.28a81.79,81.79,0,0,1-17.87-10.31A45.65,45.65,0,0,1,1901,169.36q-4.95-9.77-5-24.61,0-17.59,8.53-30a54.47,54.47,0,0,1,23.36-19q14.85-6.6,33.54-6.6,19.8,0,35.74,7.42a76.34,76.34,0,0,1,26.11,19.25l-24.74,24.74q-8.52-9.34-17.45-13.75a45.22,45.22,0,0,0-20.21-4.4q-12.92,0-20.34,5t-7.42,14.3q0,8,4.94,12.92a42.35,42.35,0,0,0,13.06,8.52q8.11,3.57,17.87,6.87t19.52,7.42a73.67,73.67,0,0,1,17.87,10.73,48.41,48.41,0,0,1,13.06,16.9q4.93,10.31,4.94,25.43,0,26.94-19,42.34T1953.51,288.25Z"/><path class="cls-1" d="M2053.85,285.5V92.24h26.39l78.34,125.36h-15.12l78.08-125.36h26.39V285.5h-37.11V156.3l7.14,2.2-54.43,87.42h-25.29l-54.43-87.42,7.42-2.2V285.5Z"/><path class="cls-1" d="M1442.18,542,1520,348.75h30.52L1628,542h-39.86l-59.93-158.62H1542L1481.22,542Zm41.24-36V474.65h103.91V506Z"/><path class="cls-1" d="M1649.19,542V409.22h36V542Zm89.34,0V465.85q0-11.81-7.42-19.24t-19.25-7.42a28.2,28.2,0,0,0-13.74,3.3,23.79,23.79,0,0,0-9.48,9.34,27.83,27.83,0,0,0-3.44,14l-14-7.14q0-15.68,6.73-27.36a47.91,47.91,0,0,1,18.7-18.28,55.07,55.07,0,0,1,27.08-6.6,48,48,0,0,1,26.11,7.29,52.93,52.93,0,0,1,18.15,19,50.39,50.39,0,0,1,6.59,25.15V542Z"/><path class="cls-1" d="M1859.21,544.75a60.6,60.6,0,0,1-32.71-9.07,63.26,63.26,0,0,1-22.82-24.74q-8.25-15.68-8.25-35.19,0-19.78,8.25-35.46a63.12,63.12,0,0,1,22.82-24.74,60.61,60.61,0,0,1,32.71-9.08,55.3,55.3,0,0,1,25.57,5.78,46.34,46.34,0,0,1,18,16.08,45.21,45.21,0,0,1,7.29,23.23v47.83a44.88,44.88,0,0,1-7.29,23.37,47.79,47.79,0,0,1-18,16.08A54.25,54.25,0,0,1,1859.21,544.75Zm6.6-33.26q15.12,0,24.47-10t9.34-26a39.32,39.32,0,0,0-4.26-18.56,31.58,31.58,0,0,0-11.82-12.65,33.84,33.84,0,0,0-17.73-4.53,33.31,33.31,0,0,0-17.46,4.53,31.58,31.58,0,0,0-11.82,12.65,39.32,39.32,0,0,0-4.26,18.56,40,40,0,0,0,4.26,18.83A31.49,31.49,0,0,0,1848.35,507,33.22,33.22,0,0,0,1865.81,511.49ZM1897.7,542V506.27l5.77-32.44-5.77-31.89V409.22h35.74V542Z"/><path class="cls-1" d="M1965.32,542V343.25h36V542Z"/><path class="cls-1" d="M2075,543.1l-55.53-133.88h39l36.83,102.27h-13.19l38.21-102.27h39.31l-59.1,133.88Zm-36.84,54.43L2078.58,512l22,31.06-24.2,54.43Z"/><path class="cls-1" d="M2162.43,521.38l70.37-91.54h43.44l-70.38,91.54Zm0,20.62V521.38L2191,510.66h83.57V542Zm5-101.44V409.22h108.86v20.62l-28.87,10.72Z"/><path class="cls-1" d="M2360.91,544.75q-20.89,0-37.11-8.93a67.7,67.7,0,0,1-25.71-24.61q-9.48-15.66-9.48-35.73,0-19.8,9.21-35.33A68.61,68.61,0,0,1,2323,415.41a69.62,69.62,0,0,1,35.47-9.21q19.23,0,33.95,8.66a62.19,62.19,0,0,1,23.09,23.64q8.39,15,8.38,33.95a64.78,64.78,0,0,1-.41,7.29,71,71,0,0,1-1.51,8.38l-111.61.28V461.46l94.84-.28-14.57,11.27q-.55-11.82-4.26-19.79a27.52,27.52,0,0,0-10.72-12.23q-7-4.26-17.18-4.26a35.48,35.48,0,0,0-18.7,4.81,31.57,31.57,0,0,0-12.23,13.47q-4.26,8.66-4.26,20.48,0,12.09,4.53,21a32.11,32.11,0,0,0,13.06,13.74,39.56,39.56,0,0,0,19.8,4.81,47.44,47.44,0,0,0,18.41-3.43,38.63,38.63,0,0,0,14.3-10.31l21.17,21.16A61.56,61.56,0,0,1,2391,539,77.57,77.57,0,0,1,2360.91,544.75Z"/><path class="cls-1" d="M2446.13,542V409.22h36V542Zm36-73.4-14-9.34q2.48-24.47,14.29-38.63t34.09-14.16a45.15,45.15,0,0,1,17.32,3.17,38.09,38.09,0,0,1,14,10.31l-22.54,25.84a19.14,19.14,0,0,0-7.29-5,26.86,26.86,0,0,0-9.75-1.65q-11.55,0-18.84,7.28T2482.14,468.6Z"/><polygon class="cls-1" points="516.84 157.03 414.03 406.19 337.26 157.03 268.01 157.03 191.4 405.67 87.83 157.03 0 157.03 157.65 541.93 226.91 541.93 302.35 298.57 377.8 541.93 447.05 541.93 604.1 157.03 516.84 157.03"/><path class="cls-1" d="M845.93,541.93h93.46L783.43,157H703.48L545.83,541.93H637.6l26.45-69.79h155.8ZM690.49,402.36l52-137.25,51.28,137.25Z"/><path class="cls-1" d="M1034.91,257.29,1110,181.68a71.09,71.09,0,0,0,7.26-8.33,28,28,0,0,0,4-7.27,21.74,21.74,0,0,0,1.19-7.14q0-9.24-6-14.67t-16-5.42a28.28,28.28,0,0,0-16.66,5.42q-7.66,5.43-16.39,18.37l-34.36-30.92a76.81,76.81,0,0,1,30-28q18.38-9.51,41.9-9.51,21.42,0,36.88,7.53a54.91,54.91,0,0,1,23.79,21.54q8.32,14,8.33,33.31a69.25,69.25,0,0,1-2.91,20.36,67,67,0,0,1-9.25,18.64,122.42,122.42,0,0,1-16.39,18.64l-47.32,44.94Zm0,28.28V257.29l43.88-15.07h99.14v43.35Z"/><path class="cls-2" d="M1299.89,194.4c0-107.36-87-194.4-194.4-194.4s-194.4,87-194.4,194.4,87,194.41,194.4,194.41a195.61,195.61,0,0,0,31.58-2.6l63,156h46.66L1179,374.4A194.42,194.42,0,0,0,1299.89,194.4Zm-343.37,0a149,149,0,1,1,149,149A149,149,0,0,1,956.52,194.4Z"/></g></g></svg>