<svg xmlns="http://www.w3.org/2000/svg" xmlns:xlink="http://www.w3.org/1999/xlink" viewBox="0 0 2641.53 697.53"><defs><style>.cls-1{fill:#0c0d15;}.cls-2{font-size:274.9px;font-family:Outfit-SemiBold, Outfit;font-weight:600;}.cls-2,.cls-7{fill:#fff;}.cls-3{letter-spacing:-0.08em;}.cls-4{letter-spacing:-0.02em;}.cls-5{letter-spacing:-0.01em;}.cls-6{letter-spacing:0em;}.cls-8{fill:url(#Безымянный_градиент_3);}</style><linearGradient id="Безымянный_градиент_3" x1="829.78" y1="317.57" x2="1418.52" y2="317.57" gradientUnits="userSpaceOnUse"><stop offset="0" stop-color="#5a3aff"/><stop offset="0.59" stop-color="#20bdff"/><stop offset="1" stop-color="#30dbbc"/></linearGradient></defs><g id="Full_logo" data-name="Full logo"><rect id="BG" class="cls-1" width="2641.53" height="697.53"/><g id="Logo"><text class="cls-2" transform="translate(1495.71 331.99)"><tspan class="cls-3">W</tspan><tspan class="cls-4" x="250.44" y="0">A</tspan><tspan x="440.95" y="0">SM</tspan></text><text class="cls-2" transform="translate(1495.71 588.49)">Anal<tspan class="cls-4" x="580.59" y="0">y</tspan><tspan class="cls-5" x="719.15" y="0">z</tspan><tspan class="cls-6" x="844.78" y="0">er</tspan></text><polygon class="cls-7" points="575.86 203.52 473.05 452.68 396.28 203.52 327.03 203.52 250.42 452.15 146.85 203.52 59.02 203.52 216.67 588.41 285.93 588.41 361.37 345.05 436.82 588.41 506.07 588.41 663.13 203.52 575.86 203.52"/><path class="cls-7" d="M905,588.41h93.46l-156-384.89h-80L604.85,588.41h91.78l26.44-69.78H878.88ZM749.51,448.85l52-137.26L852.8,448.85Z"/><path class="cls-7" d="M1093.93,303.77,1169,228.16a71.25,71.25,0,0,0,7.27-8.32,28.52,28.52,0,0,0,4-7.27,21.49,21.49,0,0,0,1.19-7.14q0-9.26-5.94-14.67t-16-5.42a28.27,28.27,0,0,0-16.65,5.42q-7.68,5.42-16.39,18.37l-34.37-30.93a76.71,76.71,0,0,1,30-28q18.38-9.52,41.9-9.52,21.42,0,36.88,7.54a54.88,54.88,0,0,1,23.8,21.54q8.33,14,8.32,33.31a69.3,69.3,0,0,1-2.91,20.36,66.91,66.91,0,0,1-9.25,18.63,122,122,0,0,1-16.39,18.64l-47.32,44.94Zm0,28.29V303.77l43.88-15.07H1237v43.36Z"/><path class="cls-8" d="M1358.92,240.89c0-107.37-87-194.41-194.41-194.41s-194.4,87-194.4,194.41,87,194.4,194.4,194.4a195.61,195.61,0,0,0,31.58-2.59l63,156h46.66L1238,420.88A194.43,194.43,0,0,0,1358.92,240.89Zm-343.37,0a149,149,0,1,1,149,149A149,149,0,0,1,1015.55,240.89Z"/></g></g></svg>