<svg xmlns="http://www.w3.org/2000/svg" xmlns:xlink="http://www.w3.org/1999/xlink" viewBox="0 0 1426.92 595.15"><defs><style>.cls-1{fill:#fff;}.cls-2{fill:url(#Безымянный_градиент_3);}</style><linearGradient id="Безымянный_градиент_3" x1="846.08" y1="297.58" x2="1492.36" y2="297.58" gradientUnits="userSpaceOnUse"><stop offset="0" stop-color="#5a3aff"/><stop offset="0.59" stop-color="#20bdff"/><stop offset="1" stop-color="#30dbbc"/></linearGradient></defs><g id="For_export_without_margins" data-name="For export without margins"><g id="Logo"><polygon class="cls-1" points="567.34 172.38 454.49 445.89 370.22 172.38 294.2 172.38 210.1 445.31 96.42 172.38 0 172.38 173.06 594.88 249.08 594.88 331.9 327.74 414.71 594.88 490.74 594.88 663.14 172.38 567.34 172.38"/><path class="cls-1" d="M928.6,594.88h102.59L860,172.38H772.23L599.17,594.88H699.91l29-76.6H900ZM758,441.68,815.06,291l56.29,150.67Z"/><path class="cls-1" d="M1136,282.43l82.42-83a77.17,77.17,0,0,0,8-9.14,31.16,31.16,0,0,0,4.35-8,23.76,23.76,0,0,0,1.31-7.84q0-10.14-6.53-16.1t-17.56-6a31.06,31.06,0,0,0-18.28,6q-8.43,6-18,20.17L1134,144.59A84.21,84.21,0,0,1,1167,113.83q20.16-10.45,46-10.45,23.5,0,40.49,8.27a60.25,60.25,0,0,1,26.11,23.65q9.15,15.38,9.14,36.56a76,76,0,0,1-3.19,22.35,73.66,73.66,0,0,1-10.15,20.46,135.27,135.27,0,0,1-18,20.46l-51.94,49.33Zm0,31.05V282.43l48.17-16.54H1293v47.59Z"/><path class="cls-2" d="M1426.92,213.4c0-117.86-95.54-213.4-213.4-213.4s-213.4,95.54-213.4,213.4,95.55,213.4,213.4,213.4a214.18,214.18,0,0,0,34.67-2.85l69.17,171.2h51.21L1294.16,411C1372,379.17,1426.92,302.72,1426.92,213.4Zm-376.92,0a163.53,163.53,0,1,1,163.52,163.52A163.52,163.52,0,0,1,1050,213.4Z"/></g></g></svg>