<svg xmlns="http://www.w3.org/2000/svg" xmlns:xlink="http://www.w3.org/1999/xlink" viewBox="0 0 1179.25 644.67"><defs><style>.cls-1{fill:#fff;}.cls-2{fill:url(#Безымянный_градиент_3);}</style><linearGradient id="Безымянный_градиент_3" x1="896.14" y1="145.04" x2="1211.14" y2="145.04" gradientUnits="userSpaceOnUse"><stop offset="0" stop-color="#5a3aff"/><stop offset="0.59" stop-color="#20bdff"/><stop offset="1" stop-color="#30dbbc"/></linearGradient></defs><g id="For_export_without_margins" data-name="For export without margins"><g id="Logo"><polygon class="cls-1" points="618.97 183.72 495.85 482.11 403.91 183.72 320.97 183.72 229.22 481.48 105.19 183.72 0 183.72 188.81 644.66 271.75 644.66 362.1 353.21 452.45 644.66 535.39 644.66 723.48 183.72 618.97 183.72"/><path class="cls-1" d="M1013.1,644.67H1125l-186.78-461H842.5l-188.8,461H763.6l31.67-83.58h186.6ZM826.94,477.52l62.29-164.38,61.41,164.38Z"/><path class="cls-1" d="M1037.47,137.66l40.17-40.46a37.68,37.68,0,0,0,3.89-4.45,15.11,15.11,0,0,0,2.12-3.89,11.69,11.69,0,0,0,.64-3.82,10.08,10.08,0,0,0-3.19-7.85,12.22,12.22,0,0,0-8.55-2.9,15.12,15.12,0,0,0-8.91,2.9q-4.11,2.91-8.77,9.83l-18.39-16.55a41.09,41.09,0,0,1,16-15A48,48,0,0,1,1075,50.39q11.46,0,19.73,4A29.35,29.35,0,0,1,1107.41,66a34.24,34.24,0,0,1,4.46,17.82,37,37,0,0,1-1.56,10.89,36,36,0,0,1-5,10,65.37,65.37,0,0,1-8.77,10l-25.32,24.05Zm0,15.13V137.66L1061,129.6h53v23.19Z"/><path class="cls-2" d="M1179.25,104a104.07,104.07,0,1,0-87.12,102.63l33.71,83.44h25l-36.26-89.76A104,104,0,0,0,1179.25,104Zm-183.72,0a79.71,79.71,0,1,1,79.7,79.71A79.7,79.7,0,0,1,995.53,104Z"/></g></g></svg>