<svg xmlns="http://www.w3.org/2000/svg" xmlns:xlink="http://www.w3.org/1999/xlink" viewBox="0 0 1278.11 697.53"><defs><style>.cls-1{fill:#0c0d15;}.cls-2{fill:#fff;}.cls-3{fill:url(#Безымянный_градиент_3);}</style><linearGradient id="Безымянный_градиент_3" x1="942.73" y1="169.71" x2="1257.73" y2="169.71" gradientUnits="userSpaceOnUse"><stop offset="0" stop-color="#5a3aff"/><stop offset="0.59" stop-color="#20bdff"/><stop offset="1" stop-color="#30dbbc"/></linearGradient></defs><g id="WASM_logo_for_a_small_menu" data-name="WASM logo for a small menu"><rect id="BG" class="cls-1" width="1278.11" height="697.53"/><g id="Logo"><polygon class="cls-2" points="665.56 208.38 542.44 506.78 450.5 208.38 367.56 208.38 275.81 506.15 151.78 208.38 46.59 208.38 235.39 669.33 318.33 669.33 408.69 377.88 499.04 669.33 581.98 669.33 770.07 208.38 665.56 208.38"/><path class="cls-2" d="M1059.68,669.33h111.94L984.84,208.38H889.09l-188.8,461h109.9l31.67-83.57h186.6ZM873.53,502.19l62.28-164.38,61.42,164.38Z"/><path class="cls-2" d="M1084.06,162.32l40.17-40.45a38.49,38.49,0,0,0,3.89-4.45,15.59,15.59,0,0,0,2.12-3.89,11.73,11.73,0,0,0,.63-3.82,10.09,10.09,0,0,0-3.18-7.85,12.22,12.22,0,0,0-8.55-2.9,15.17,15.17,0,0,0-8.92,2.9q-4.1,2.9-8.77,9.83l-18.38-16.55a41,41,0,0,1,16-15,48,48,0,0,1,22.42-5.1q11.46,0,19.73,4A29.33,29.33,0,0,1,1154,90.61a34.26,34.26,0,0,1,4.45,17.82,37.06,37.06,0,0,1-1.55,10.9,36.08,36.08,0,0,1-5,10,65.37,65.37,0,0,1-8.77,10l-25.32,24Zm0,15.14V162.32l23.48-8.06h53v23.2Z"/><path class="cls-3" d="M1225.83,128.68a104,104,0,1,0-104,104,105.69,105.69,0,0,0,16.9-1.38l33.71,83.44h25L1161.13,225A104,104,0,0,0,1225.83,128.68Zm-183.71,0a79.7,79.7,0,1,1,79.7,79.7A79.7,79.7,0,0,1,1042.12,128.68Z"/></g></g></svg>